<?xml version="1.0" encoding="utf-8" ?><svg xmlns="http://www.w3.org/2000/svg" xmlns:xlink="http://www.w3.org/1999/xlink" width="1024" height="559" viewBox="0 0 1024 559"><path fill="white" d="M0 0L1024 0L1024 559L0 559L0 0Z"/><path fill="#17395A" d="M573.499 156.834L615.139 166.627C622.989 168.464 632.529 170.396 640.099 172.651C647.487 180.465 660.054 196.408 666.901 205.2C659.502 207.786 650.679 211.372 643.448 214.45L643.459 294.567L572.388 322.474C565.011 325.315 556.484 329.428 549.04 331.557C545.609 332.538 535.213 332.253 531.101 332.242L504.441 332.172L402.25 332.186C387.254 332.244 372.258 332.223 357.263 332.124L363.973 317.057C409.057 316.342 456.413 317.02 501.662 317.089L551.647 205.844L617.969 180.03L568.338 168.189C570.087 164.647 571.855 160.474 573.499 156.834Z"/><path fill="white" d="M630.471 252.036C631.567 253.36 631.087 282.035 631.073 285.995L555.213 315.85C554.122 314.553 554.602 285.966 554.614 281.994L630.471 252.036Z"/><path fill="#17395A" d="M596.878 277.053C597.742 278.1 597.437 285.716 597.429 287.632L566.006 299.999L565.66 299.716C565.054 297.919 565.281 291.649 565.296 289.359L596.878 277.053Z"/><path fill="white" d="M630.515 219.53C631.554 220.987 631.074 237.041 631.06 239.843C627.91 240.938 624.514 242.276 621.423 243.575C599.483 252.799 576.408 260.496 554.663 270.033L554.65 247.917L554.607 219.286C560.93 226.796 566.968 234.486 573.375 242.031C578.97 240.296 588.722 236.092 594.431 233.846C606.511 229.205 618.539 224.433 630.515 219.53Z"/><path fill="#01B9B6" d="M574.838 94.4538C575.512 96.1462 577.346 109.013 577.722 111.444C579.637 123.989 581.67 136.515 583.82 149.021C578.602 146.986 573.4 144.911 568.215 142.794C556.897 167.353 545.883 192.618 534.799 217.332L494.872 306.503L461.006 306.519C462.947 301.375 467.106 292.721 469.48 287.437L486.055 250.617L539.453 131.929C534.484 129.922 529.529 127.879 524.589 125.801L574.838 94.4538Z"/><path fill="#01B9B6" d="M476.84 168.522L510.604 168.62C501.834 186.911 493.12 207.312 484.775 225.891L448.52 306.559L414.897 306.501L476.84 168.522Z"/><path fill="#01B9B6" d="M413.911 205.007C423.025 205.034 439 204.545 447.544 205.273C444.715 212.709 440.168 222.062 436.808 229.583L415.087 277.877C410.933 287.093 406.124 297.205 402.404 306.535L368.621 306.46L397.891 241.319C403.105 229.726 409.282 216.715 413.911 205.007Z"/><path fill="#17395A" d="M743.215 389.078C760.762 387.784 773.511 396.082 775.462 414.208C778.317 440.727 750.582 456.012 729.914 438.526L729.962 444.201L729.957 464.684L716.652 464.741C716.637 439.867 716.319 414.341 716.772 389.525L729.467 389.536L729.448 396.27C734.547 391.673 736.527 390.512 743.215 389.078Z"/><path fill="white" d="M743.487 400.051C765.794 398.6 769.169 428.992 749.009 434.497C725.834 435.498 722.755 405.499 743.487 400.051Z"/><path fill="#17395A" d="M672.886 389.134C689.988 387.537 702.863 396.324 704.889 413.779C708.008 440.653 680.384 455.791 659.485 438.633L659.473 445.25L659.483 464.647L646.298 464.68L646.306 389.518L658.931 389.535L658.856 396.313C663.904 391.786 666.122 390.436 672.886 389.134Z"/><path fill="white" d="M672.287 400.095C696.19 398.734 698.239 429.235 678.631 434.458C656.111 435.769 651.914 406.52 672.287 400.095Z"/><path fill="#17395A" d="M380.673 388.561C391.043 386.526 401.707 390.217 408.599 398.228C415.491 406.238 417.55 417.333 413.99 427.283C410.43 437.233 401.8 444.504 391.39 446.324C375.526 449.098 360.386 438.581 357.448 422.746C354.51 406.911 364.869 391.663 380.673 388.561Z"/><path fill="white" d="M383.992 400.074C406.092 398.779 409.677 428.829 389.289 434.512C373.303 435.096 365.738 422.355 372.661 407.442C374.529 403.419 379.755 401.074 383.992 400.074Z"/><path fill="#17395A" d="M272.322 371.612C284.433 370.202 293.709 372.033 304.27 377.808C302.647 381.087 300.988 385.35 299.549 388.789C290.694 384.015 273.748 378.146 265.682 387.613C256.161 399.632 283.941 403.033 291.01 405.494C306.877 411.016 312.439 423.842 302.012 437.88C297.6 443.82 286.962 445.45 279.799 446.025C267.98 446.293 258.109 443.788 248.5 436.905L253.503 425.875C262.759 432.031 270.525 435.675 282.156 434.282C286.025 433.819 289.409 432.578 291.75 429.388C292.684 428.115 294.267 425.162 293.615 423.726C289.078 413.735 266.814 415.024 258.055 408.025C254.457 405.51 251.278 401.975 250.605 397.331C248.314 381.51 258.78 374.063 272.322 371.612Z"/><path fill="#17395A" d="M599.373 389.161C607.609 387.885 618.393 389.064 624.43 395.185C631.53 402.382 630.589 412.205 630.589 421.464C630.589 429.414 630.548 437.279 630.522 445.187L618.344 445.046L618.201 438.872C608.423 448.048 593.063 448.787 583.31 439.263C581.014 436.421 579.835 433.372 579.758 429.712C579.333 409.693 604.177 411.92 617.803 412.018C614.32 394.398 598.475 398.441 586.583 405.289C584.977 402.209 583.404 399.112 581.866 395.998C587.296 391.793 592.746 390.138 599.373 389.161Z"/><path fill="white" d="M600.038 421.158C605.56 420.837 611.918 421.02 617.508 421.056C617.584 428.664 616.645 431.413 609.785 435.199C605.383 436.194 601.924 436.879 597.781 435.093C592.398 432.773 590.003 426.689 595.658 423.019C597.347 421.923 598.133 421.668 600.038 421.158Z"/><path fill="#17395A" d="M488.014 368.533L501.487 368.528L501.515 414.192C506.09 409.908 523.823 391.825 527.5 389.534L543.127 389.562L520.594 412.486L535.414 431.902L545.505 445.044L529.279 445.202C523.212 437.177 517.072 429.207 510.859 421.294C507.67 424.09 504.557 427.245 501.52 430.229L501.496 445.121L487.992 445.058L488.014 368.533Z"/><path fill="#17395A" d="M448.714 389.12C461.077 387.629 471.222 390.743 478.039 401.586C474.629 403.641 471.237 405.727 467.865 407.845C460.247 398.8 448.414 395.847 440.784 406.284C427.168 424.911 452.522 446.574 466.882 427.255L467.21 426.785C468.899 427.066 476.151 431.426 478.128 432.552C477.883 432.981 477.62 433.399 477.341 433.807C468.088 447.392 448.427 449.687 435.454 440.623C429.407 436.334 425.312 429.819 424.069 422.511C421.038 405.411 432.093 392.032 448.714 389.12Z"/><path fill="#17395A" d="M320.558 376.594L333.631 376.62L333.643 389.688L348.619 389.662L348.527 400.381L333.688 400.36C333.608 408.033 330.833 431.202 338.705 434.379C341.773 435.616 346.012 433.993 348.845 432.628L351.325 439.746C353.529 445.491 343.827 445.607 340.151 445.774C314.908 446.922 320.454 418.892 320.465 400.289L311.509 400.393L311.526 389.637L320.506 389.692L320.558 376.594Z"/><path fill="#17395A" d="M553.572 389.502L567.015 389.531L567.039 445.102L553.549 445.106L553.572 389.502Z"/><path fill="#17395A" d="M556.978 365.588C569.476 364.735 573.504 375.249 563.004 380.878C558.795 381.206 554.893 380.816 552.466 376.827C551.509 375.269 551.228 373.388 551.687 371.618C552.483 368.501 554.388 367.153 556.978 365.588Z"/></svg>